<?xml version="1.0" encoding="utf-8"?>
<!-- Generator: Adobe Illustrator 16.0.0, SVG Export Plug-In . SVG Version: 6.00 Build 0)  -->
<!DOCTYPE svg PUBLIC "-//W3C//DTD SVG 1.1//EN" "http://www.w3.org/Graphics/SVG/1.1/DTD/svg11.dtd">
<svg version="1.1" id="Livello_1" xmlns="http://www.w3.org/2000/svg" xmlns:xlink="http://www.w3.org/1999/xlink" x="0px" y="0px"
	 width="17.667px" height="20.188px" viewBox="0 21 17.667 20.188" enable-background="new 0 21 17.667 20.188"
	 xml:space="preserve">
<title>Logo dell&amp;Agenzia per l&amp;Italia Digitale</title>
<desc>Emblema della Repubblica Italiana con accanto l&amp;acronimo AGID</desc>
<path fill="#FFFFFF" d="M13.536,34.057c0.107,0,0.247,0.062,0.169,0.109c-0.062,0.047-0.062,0.17-0.123,0.246
	c-0.107,0-0.169-0.062-0.247-0.17c-0.016-0.076,0.046-0.154,0.139-0.17h0.062V34.057z"/>
<path fill="#FFFFFF" d="M5.704,36.51c0.092,0.061,0.2,0.061,0.292,0L5.889,36.4l-0.185-0.123c-0.108-0.062-0.17,0-0.247,0.107
	L5.704,36.51z"/>
<path fill="#FFFFFF" d="M10.776,39.9c0,0.061,0,0.107,0.062,0.107c0.045,0.047,0.107,0.062,0.169,0.062L10.776,39.9z"/>
<path fill="#FFFFFF" d="M17.543,30.25c0.061-0.354,0-0.586-0.108-0.709c-0.108-0.108-0.293-0.062-0.524,0.108
	c-0.108-0.061-0.293,0-0.463,0.17c0.062-0.062,0.062-0.154,0-0.247c0.17-0.061,0.293-0.107,0.354-0.292
	c0.062-0.17,0.108-0.293,0.062-0.462c0.062-0.248,0.247-0.463,0.355-0.709c0.17-0.355,0.062-0.463-0.293-0.355
	c0.139-0.108,0.262-0.293,0.293-0.462c0-0.17-0.062-0.339-0.169-0.462c-0.062-0.108-0.108-0.108-0.247-0.062
	c0.047-0.062,0.062-0.139,0.062-0.247c-0.062-0.247-0.107-0.417-0.169-0.632c0-0.416-0.108-0.57-0.293-0.524
	c0-0.247-0.108-0.416-0.247-0.631c-0.169-0.248-0.292-0.355-0.417-0.17c-0.292-0.417-0.524-0.585-0.771-0.524
	c0-0.17-0.062-0.339-0.169-0.462c0.046-0.231-0.016-0.462-0.169-0.632c-0.108-0.062-0.247,0-0.293,0.246
	c0-0.154-0.046-0.339-0.123-0.478c-0.031-0.154-0.17-0.293-0.355-0.293H13.69c-0.078-0.077-0.186-0.107-0.293-0.107
	c-0.247-0.247-0.462-0.293-0.632-0.062v-0.216c-0.062-0.247-0.247-0.293-0.417-0.17c-0.262-0.262-0.555-0.478-0.878-0.631
	c-0.201-0.077-0.371-0.077-0.432,0.062c-0.093-0.093-0.231-0.154-0.354-0.17c-0.139-0.031-0.247-0.062-0.355-0.124
	c-0.169,0-0.247,0.062-0.247,0.293c-0.169,0.015-0.354,0.046-0.524,0.107c-0.108,0.062-0.108,0.17-0.062,0.293
	c0.077,0.124,0.17,0.247,0.293,0.354c-0.062,0.062-0.062,0.108-0.062,0.247c0,0.108,0.108,0.17,0.354,0.247
	c0.139,0.062,0.324,0.062,0.462,0c-0.046,0.108,0,0.247,0.092,0.293c0,0,0.016,0,0.016,0.015h0.062
	c0.169,0.231,0.493,0.309,0.771,0.17l-0.077,0.216l0.416,0.154c0,0.185,0.108,0.354,0.293,0.416l0.247,0.062
	c-0.062,0-0.169,0.108-0.169,0.108c-0.062,0.062-0.062,0.154,0,0.247c0.03,0.031,0.077,0.046,0.108,0.062h0.524
	c0,0.062,0.061,0.108,0.061,0.17c0.062,0.107,0.139,0.2,0.247,0.293c0.154,0.123,0.339,0.231,0.524,0.293
	c-0.062,0.107-0.062,0.169-0.108,0.292c-0.062,0.169-0.062,0.355,0,0.524c-0.062,0.031-0.124,0.062-0.17,0.108
	c-0.108,0.169,0.108,0.462,0.17,0.586c-0.046,0-0.077,0.03-0.108,0.062c-0.108,0.062-0.062,0.416,0.247,0.462
	c0.185,0.108,0.37,0.262,0.524,0.416l0.246,0.354c0.108,0.17,0.108,0.247,0.293,0.247c0.154,0.493,0.401,0.956,0.71,1.387
	c0.169,0.154,0.292,0.354,0.354,0.585c0,0.108-0.062,0.247,0,0.355c-0.031,0.324-0.093,0.617-0.17,0.925
	c-0.292-0.108-0.354,0.062-0.416,0.247c-0.062-0.031-0.139,0-0.169,0.061c-0.015-0.123-0.139-0.2-0.262-0.185
	c-0.016,0-0.031,0-0.031,0.015c-0.062,0.062-0.108,0.062-0.17,0.108c-0.092-0.047-0.107-0.108-0.107-0.17v-0.354
	c0.062-0.062,0.062-0.108,0.107-0.17c0.062-0.339,0.046-0.678-0.061-0.986c0-0.092-0.078-0.169-0.17-0.169c0,0-0.169,0-0.247,0.107
	c0-0.062-0.108-0.107-0.17-0.107c-0.247-0.062-0.462,0.354-0.462,0.817c-0.169-0.107-0.416-0.062-0.354,0.108
	c0.062,0.292,0.524,0.878,0.524,1.109c-0.108-0.108-0.462-0.108-0.462,0.17c0.015,0.122,0.046,0.247,0.107,0.354
	c-0.062,0.354,0.293,0.586,0.632,0.877c-0.016,0.078,0.015,0.154,0.062,0.248c-0.062,0.107-0.417,0.631-0.417,0.631
	s-0.293-0.107-0.354-0.061c-0.062,0.045-0.108,0.17-0.17,0.246l0.062,0.416c0.016,0.199-0.062,0.4-0.247,0.525
	c-0.154,0.154-0.292,0.338-0.416,0.523c-0.077,0.186-0.231,0.34-0.416,0.416l-0.17-0.184c0,0-0.062-0.062-0.062,0
	c-0.493,0.184-0.956,0.416-1.402,0.707c-0.247,0.156-0.417,0.385-0.524,0.633H9.481l-0.354-0.354
	c-0.154-0.062-0.339-0.047-0.463,0.061c-0.231-0.045-0.447-0.014-0.631,0.109c-0.093,0.045-0.185,0.062-0.293,0.062L7.215,36.57
	c-0.555-0.293-1.156-0.477-1.758-0.586c-0.108,0.062-0.169,0.17-0.246,0.248c-0.17-0.109-0.339-0.248-0.463-0.418l-0.293-0.354
	c-0.169-0.186-0.293-0.432-0.293-0.711l0.046-0.309c0-0.061,0-0.105-0.062-0.105c-0.077-0.078-0.186-0.109-0.293-0.109
	c0,0-0.062,0-0.108,0.17c0,0.062-0.354-0.463-0.354-0.463c0.169-0.23,0.308-0.477,0.354-0.756c0.062-0.354,0.108-0.631,0.17-0.985
	c0-0.032,0.03-0.062,0.045-0.062c0.247-0.478,0.354-1.032,0.294-1.587c-0.031-0.047-0.047-0.108-0.062-0.17H4.132l0.062-0.108
	c0.062-0.108,0.062-0.108,0-0.169c-0.123-0.016-0.247,0.016-0.354,0.062l-0.201-0.586H3.576c-0.292,0.293-0.478,0.664-0.524,1.048
	l-0.046,0.062c-0.386,0.479-0.678,1.033-0.833,1.634c-0.061-0.107-0.108-0.292-0.169-0.416c-0.046-0.107-0.062-0.231-0.062-0.355
	c0.062-0.107,0.062-0.246-0.062-0.292c-0.123-0.308-0.231-0.601-0.292-0.925c0.062-0.247,0.108-0.462,0.169-0.632
	c0.17-0.354,0.355-0.771,0.524-1.11c0,0,0.108-0.108,0.17-0.108c0.354-0.108,2.004-2.158,1.819-3.145
	c0.293-0.462,0.524-0.925,0.771-1.403h0.108l0.108-0.062c0.355-0.107,0.632-0.292,0.94-0.416l0.416-0.232
	c0.309-0.107,0.586-0.308,0.833-0.524c0.247-0.185,0.417-0.462,0.463-0.771c-0.062-0.107-0.17-0.107-0.417-0.107
	c0.107-0.124,0.169-0.293,0.169-0.462c-0.107-0.108-0.354-0.108-0.832-0.062c-0.462,0.107-0.894,0.308-1.279,0.57
	c-0.725,0.462-1.28,1.11-1.65,1.866l0.247-0.462c0.108-0.247,0.246-0.524,0.354-0.817c0.062-0.108,0.062-0.247,0-0.354
	c-0.046-0.047-0.108-0.047-0.231-0.047c-0.247,0.092-0.447,0.247-0.632,0.417c-0.354,0.354-0.632,0.771-0.817,1.233
	c-0.2,0.354-0.385,0.725-0.524,1.11c0.062-0.277,0.062-0.54,0-0.817c0-0.062-0.108-0.107-0.246-0.062
	c-0.124,0.093-0.231,0.232-0.309,0.355c-0.108,0.17-0.247,0.292-0.355,0.463c-0.123,0.185-0.262,0.385-0.354,0.57
	c-0.17,0.292-0.309,0.601-0.354,0.925c-0.124,0.478-0.2,0.956-0.247,1.449c-0.031,0.417-0.015,0.816,0.062,1.233
	c0.062,0.339,0.17,0.679,0.293,0.987c0.077,0.139,0.2,0.277,0.354,0.354c0.062,0.169,0.108,0.416,0.247,0.771
	c0.046,0.124,0.078,0.278,0.062,0.416c-0.015,0.062,0.016,0.123,0.062,0.17c0.077,0.046,0.124,0.138,0.124,0.247
	c0.062,0.355,0.246,0.633,0.354,0.924c0,0.17-0.062,0.293-0.062,0.463c-0.386-0.941-0.602-1.696-0.848-2.22
	c-0.416-0.879-0.709-1.28-0.94-1.233C0.107,29.787,0,29.911,0,30.08v0.463c0,0.292,0.062,0.524,0.062,0.816
	c0.154,0.864,0.524,1.664,1.049,2.344l0.77,0.879c0.154,0.092,0.324,0.23,0.463,0.354c0.124,0.078,0.277,0.094,0.417,0.062
	c0.185,0.307,0.4,0.586,0.632,0.879c0.169,0.246,0.354,0.416,0.524,0.355c0.045,0.152,0.184,0.262,0.354,0.244h0.201
	c0.169,0.188,0.385,0.371,0.585,0.525l-0.17,0.586c-0.308,0.045-0.616,0.062-0.94,0.062c-0.293-0.17-0.632-0.465-1.187-0.818v-0.631
	c-0.016-0.17,0.015-0.371,0.107-0.525c-0.015-0.123-0.077-0.262-0.169-0.354c-0.109-0.109-0.355-0.17-0.417-0.109
	c-0.062,0.062,0,0.062,0,0.109v0.107c0-0.062,0-0.062,0.062-0.062c0.293,0.062,0.417,0.17,0.417,0.293
	C2.667,35.814,2.636,36,2.651,36.186v0.523c-0.37-0.246-0.771-0.461-1.187-0.631h0.169c0.062,0,0.108,0,0.108-0.062
	s0-0.062-0.108-0.062c-0.139-0.016-0.293,0.016-0.417,0.062c-0.046,0.031-0.062,0.094-0.03,0.139c0,0.014,0.015,0.014,0.03,0.031
	c0.463,0.246,0.878,0.461,1.357,0.771c0.478,0.291,0.956,0.584,1.403,0.924c0.354,0,0.771-0.062,1.357-0.107l0.878-0.17
	c0.355-0.062,0.771-0.109,1.188-0.17c0.169-0.047,0.355-0.061,0.524-0.061c0.201,0.014,0.432-0.016,0.632-0.062
	c0.154,0.277,0.292,0.555,0.354,0.879c0,0.107,0,0.246-0.062,0.246c-0.585,0.248-1.188,0.416-1.757,0.586l-0.986,0.246
	c-0.709,0.109-1.465,0.246-2.174,0.293c-0.524-0.246-1.048-0.523-1.588-0.816c-0.463-0.248-0.878-0.586-1.295-0.879
	c-0.416-0.293-0.463-0.463-0.463-0.525c0.17-0.244,0.309-0.523,0.355-0.816v-0.246c-0.062-0.246,0-0.355,0.17-0.355h0.94
	c0.062,0,0.107,0,0.107-0.061l0.17-0.293l-0.077-0.076l-0.108,0.246v0.062H1.125c-0.092,0-0.17,0.045-0.247,0.105
	c-0.062,0.125-0.062,0.279,0,0.418v0.17c-0.092,0.291-0.247,0.555-0.417,0.816c0,0.076,0.016,0.154,0.062,0.246
	c0.108,0.17,0.247,0.34,0.417,0.465c0.108,0.105,0.292,0.244,0.416,0.354c0.324,0.199,0.663,0.416,1.002,0.584
	c0.524,0.295,1.048,0.588,1.587,0.816c0.108,0,0.817-0.107,2.112-0.291v0.107c-0.354,0.293-0.586,0.416-0.709,0.355
	c-0.108-0.062-0.169,0.107-0.108,0.355c0.062,0.107,0.108,0.168,0.247,0.168l0.107,0.107l0.355,0.246
	c0.124,0.062,0.292,0.062,0.416,0c0.124-0.045,0.201-0.152,0.247-0.293l0.062-0.061l0.417-0.416l0.292-0.232
	c0.17-0.014,0.355-0.092,0.479-0.246c0-0.092,0.046-0.17,0.108-0.246l0.354-0.246c0-0.062,0.17,0,0.462,0.17
	c0.108,0.061,0.247,0.061,0.355,0l0.292-0.17c0.493,0.23,0.925,0.539,1.294,0.924c0,0.062,0,0.109,0.109,0.248
	c0.107,0.107,0.261,0.168,0.417,0.168l0.107,0.295l0.108,0.061c0.23,0.016,0.431-0.078,0.585-0.248l0.247-0.061
	c0.108-0.047,0.169-0.168,0.169-0.293l-0.108-0.061l-0.169-0.062c-0.278-0.125-0.524-0.279-0.771-0.463l-0.169-0.107
	c0.925,0.139,1.865,0.246,2.82,0.291c0.231,0.016,0.432-0.074,0.585-0.246c0.247-0.17,0.94-0.707,2.112-1.525
	c0.17-0.186,0.308-0.4,0.417-0.631c-0.123-0.109-0.231-0.262-0.293-0.416c-0.062-0.141-0.108-0.311-0.108-0.463v-0.293
	c0-0.107,0-0.17-0.108-0.248c-0.062-0.061-0.138-0.092-0.247-0.107h-0.771c-0.107,0-0.247-0.062-0.247-0.107v-0.354
	c0-0.109,0-0.172-0.108-0.109c-0.2,0.047-0.4,0.123-0.585,0.246c-0.077,0.062-0.092,0.186-0.015,0.279l0.015,0.014
	c0.077,0.047,0.108,0.139,0.108,0.248c-0.016,0.322-0.047,0.615-0.108,0.924c-0.323,0.309-0.678,0.555-1.048,0.771
	c-0.339,0.031-0.678,0.016-1.002-0.062c-0.139-0.139-0.231-0.322-0.246-0.523c0.185-0.123,0.385-0.246,0.585-0.355l0.354-0.061
	c0.108,0,0.108-0.109,0.108-0.246c0.107-0.062,0.169-0.109,0.169-0.248l0.585-0.709c0.17-0.154,0.401-0.262,0.632-0.293
	c0.401-0.061,0.786-0.23,1.126-0.463c0.062-0.092,0.062-0.199,0-0.293c0.246-0.168,0.462-0.4,0.632-0.631
	c0.123-0.154,0.154-0.4,0.062-0.588c0.247-0.229,0.4-0.492,0.478-0.816c0.062-0.185,0.062-0.401,0-0.584
	c0.108-0.062,0.2-0.14,0.292-0.247c0.124-0.155,0.108-0.401-0.046-0.525C17.636,30.897,17.667,30.543,17.543,30.25z M7.77,21.91
	c-0.015,0.17-0.093,0.354-0.247,0.463c-0.293,0.247-0.601,0.462-0.94,0.631c-0.462,0.17-0.925,0.386-1.356,0.632v-0.062
	c0.602-0.494,1.249-0.925,1.927-1.28c0.17-0.107,0.108-0.107-0.062-0.062c-0.262,0.108-0.493,0.247-0.709,0.416l-1.28,0.771v-0.108
	c0.586-0.54,1.264-0.987,2.004-1.341C7.323,21.863,7.539,21.848,7.77,21.91z M5.427,22.157c0.385-0.339,0.848-0.57,1.356-0.709
	c0.2-0.062,0.416-0.108,0.632-0.108c0.108,0,0.108,0.062,0.062,0.169l-0.232,0.293c-0.308,0.046-0.57,0.17-0.832,0.355
	c-0.401,0.262-0.801,0.524-1.187,0.816l-0.062,0.062c-0.139,0-0.292,0.046-0.416,0.108c0.509-0.462,1.048-0.863,1.649-1.233
	c0.201-0.077,0.386-0.169,0.54-0.293c-0.231,0.062-0.447,0.154-0.632,0.293c-0.462,0.293-0.94,0.57-1.402,0.925l-0.632,0.57
	c0.339-0.446,0.725-0.878,1.125-1.279C5.365,22.141,5.427,22.157,5.427,22.157z M4.779,23.312c0.062-0.062,0.107-0.062,0.246-0.062
	v0.293c-0.061,0.277-0.154,0.524-0.293,0.771l-0.354,0.771c-0.293,0.046-0.54,0.154-0.771,0.355
	c0.108-0.247,0.293-0.463,0.463-0.771c0.169-0.293,0.461-0.709,0.816-1.234c0.062-0.107,0.062-0.107,0-0.061
	c-0.169,0.169-0.339,0.37-0.462,0.585c-0.246,0.355-0.585,0.879-1.048,1.635c-0.108,0.169-0.417,0.585-0.879,1.279l0.062-0.169
	l0.632-1.109l0.585-1.111C4.008,24.037,4.363,23.636,4.779,23.312z M2.235,25.872c0.37-0.617,0.709-1.264,1.001-1.912
	c0.124-0.308,0.324-0.57,0.525-0.817c0.062-0.17,0-0.17-0.108,0c-0.462,0.601-0.863,1.279-1.187,1.989l0.169-0.524
	c0.107-0.248,0.169-0.524,0.354-0.771c0.139-0.308,0.324-0.601,0.524-0.878c0.124-0.139,0.247-0.309,0.354-0.463
	c0.108-0.123,0.263-0.231,0.417-0.293c0.03,0.031,0.046,0.062,0.062,0.108l-0.524,1.341c-0.371,0.74-0.833,1.402-1.357,2.05
	c-0.247,0.247-0.354,0.417-0.416,0.462c-0.062,0.046-0.108,0.108-0.108,0.17l0.062-0.17C2.02,26.165,2.235,25.872,2.235,25.872z
	 M2.482,27.043l-0.355,0.709H2.065l0.17-0.709H2.482z M1.711,28.801l0.046-0.293l0.062-0.292l0.169-0.062l-0.247,0.571l-0.108,0.462
	C1.649,29.201,1.711,28.801,1.711,28.801z M1.588,27.706l0.169-0.878l0.062,0.107L1.588,27.706z M1.188,29.726v-0.062
	c0-0.416,0.077-0.833,0.246-1.233C1.295,29.047,1.233,29.448,1.188,29.726z M1.048,29.156c-0.046-0.617-0.016-1.218,0.123-1.804
	c0.077-0.663,0.232-1.295,0.463-1.911c0.108-0.17,0.108-0.247,0-0.108c-0.478,0.987-0.755,2.096-0.771,3.191
	c-0.015,0.339,0.016,0.693,0.062,1.048c0.062,0.247,0.108,0.355,0.247,0.417c0.031,0.046,0.108,0.062,0.154,0.015
	c0.016,0,0.016-0.015,0.016-0.015c0.015,0.077-0.016,0.154-0.062,0.247c-0.154-0.093-0.293-0.247-0.355-0.417
	c-0.108-0.247-0.169-0.494-0.246-0.771c-0.093-0.401-0.139-0.816-0.108-1.233c0.046-0.509,0.123-1.018,0.246-1.527
	c0.17-0.771,0.586-1.402,1.048-1.988c0.108-0.108,0.169-0.17,0.247-0.108v0.816c-0.047,0.309-0.124,0.587-0.247,0.879
	c-0.169,0.585-0.354,1.233-0.462,1.804C1.295,28.092,1.188,28.631,1.048,29.156z M1.356,30.204v-0.169
	c0.17-0.247,0.308-0.524,0.355-0.817l0.354-0.924l0.417-0.987c0.277-0.539,0.601-1.048,1.001-1.526
	c0.123-0.247,0.37-0.417,0.632-0.462c0.062,0.062,0.062,0.169,0,0.416c-0.062,0.247-0.17,0.462-0.247,0.709
	c-0.339,0.663-0.786,1.279-1.294,1.804l0.724-1.172l0.354-0.632c0.108-0.247,0.108-0.354,0-0.293
	c-0.709,1.11-1.125,1.758-1.233,2.05c-0.108,0.293-0.293,0.525-0.417,0.771c-0.124,0.154-0.231,0.339-0.292,0.524
	C1.649,29.71,1.542,29.988,1.356,30.204z M4.178,30.604c-0.046,0.4-0.124,0.786-0.247,1.171c0.015-0.262-0.015-0.509-0.062-0.771
	l0.108-0.308c0-0.108,0-0.108-0.062,0L3.884,30.82v-0.231l0.17-0.169C4.178,30.327,4.178,30.389,4.178,30.604z M3.993,30.034
	c0.107,0,0.107,0,0.062,0.108l-0.17,0.292c0-0.107-0.061-0.169-0.061-0.292C3.884,30.08,3.946,30.08,3.993,30.034z M3.175,30.496
	c0.108-0.585,0.293-0.878,0.417-0.925c0.108,0.355,0.17,0.74,0.17,1.11c0.062,0.479,0.062,0.971,0,1.449
	c0,0.385-0.108,0.772-0.293,1.11l-0.124,0.309v-2.158c0-0.463,0.062-0.925,0.107-1.526v-0.078c-0.107,0.74-0.169,1.465-0.169,2.22
	v1.403l-0.108-0.186c-0.092-0.492-0.138-1.001-0.107-1.526C3.083,31.314,3.114,30.897,3.175,30.496z M2.281,32.254
	c0.154-0.57,0.432-1.126,0.817-1.588c-0.078,0.2-0.139,0.416-0.17,0.632c-0.292,0.508-0.524,1.049-0.709,1.633
	c-0.062,0.172-0.062,0.418-0.107,0.586C2.127,33.104,2.189,32.67,2.281,32.254z M2.929,33.133L2.683,32.84l0.169-0.417
	C2.867,32.654,2.898,32.902,2.929,33.133z M5.057,37.449l0.107-0.418l0.463,0.295L5.057,37.449z M6.212,37.279l-0.816-0.477
	l-0.709-0.465l-0.108-0.17c-0.047-0.045-0.107-0.059-0.169-0.059c-0.062,0.059-0.108,0-0.17-0.109
	c-0.185,0.109-0.447,0.062-0.586-0.107l-0.354-0.416l-0.292-0.525l-0.17-0.107c-0.077,0.031-0.124,0.031-0.247,0.031
	c-0.185-0.031-0.354-0.139-0.462-0.293c-0.231-0.34-0.416-0.695-0.586-1.049c-0.309-0.584-0.586-1.233-0.894-1.802
	c-0.107-0.355-0.169-0.587-0.247-0.633c-0.077-0.047-0.062-0.108-0.062,0c0.062,0.169,0.062,0.416,0.169,0.586
	c0.17,0.462,0.354,0.878,0.524,1.279c0.247,0.463,0.463,0.877,0.709,1.279c-0.447-0.445-0.817-0.971-1.125-1.525
	c-0.232-0.432-0.37-0.878-0.462-1.341c-0.047-0.201-0.062-0.432-0.062-0.632v-0.508c0.062-0.139,0.062-0.139,0.139-0.139
	c0.077,0,0.108,0.108,0.293,0.293c0.263,0.416,0.448,0.878,0.586,1.342c0.246,0.709,0.416,1.171,0.462,1.339
	c0.047,0.17,0.108,0.416,0.17,0.588c0.046,0.152,0.123,0.322,0.247,0.461c0.092,0.186,0.2,0.369,0.354,0.525
	c0.169,0.105,0.293,0.105,0.355,0.061l-0.355-0.709H2.251V33.75c0.03-0.201,0.061-0.432,0.108-0.633
	c0.169-0.523,0.385-1.017,0.632-1.526c-0.046,0.185-0.062,0.385-0.062,0.585c-0.246,0.585-0.462,1.048-0.585,1.401
	c-0.062,0.248-0.062,0.355,0,0.355l0.062-0.061l-0.046-0.186l0.062-0.109l0.107,0.248l0.062-0.061l0.062,0.107L2.589,33.98
	l0.417,0.586l0.108-0.107l0.061,0.107c-0.092,0.078-0.154,0.184-0.169,0.309c0.108,0.17,0.247,0.416,0.354,0.586
	c0.247,0.293,0.417,0.416,0.524,0.246c0.062-0.061,0.108,0,0.17,0.061c0.092,0.078,0.169,0.172,0.246,0.295v-0.248l-0.354-0.416
	L3.7,34.936c-0.108-0.168-0.293-0.414-0.417-0.586l-0.293-0.523c-0.108-0.168-0.247-0.416-0.416-0.633V33.07l0.354,0.463
	c0.247,0.277,0.447,0.57,0.632,0.879c0.107,0.17,0.169,0.246,0.247,0.109l0.062-0.172l0.124,0.047l-0.108,0.416v0.107
	c0,0.109,0,0.17,0.062,0.17c0.062,0,0.062,0.062,0.108,0.17c0.107,0.17,0.246,0.293,0.354,0.463c0.185,0.23,0.401,0.416,0.632,0.586
	c0.247,0.107,0.416,0.293,0.524,0.355c0.108,0.061,0.247,0.168,0.17,0.293l0.169,0.061l-0.046-0.232h0.154
	c0.077,0.062,0.124,0.141,0.17,0.246c0.169,0.109,0.293,0.248,0.462,0.355L6.212,37.279z M2.76,33.887l0.061-0.061l0.293,0.463
	v0.061L2.76,33.887z M3.299,34.875l0.108-0.107L3.7,35.184l0.169,0.293l0.062,0.17c-0.107-0.062-0.169-0.17-0.247-0.248l-0.17-0.246
	L3.299,34.875z M6.937,37.141l-0.462-0.355c-0.124-0.154-0.263-0.322-0.417-0.461c-0.062-0.062-0.108-0.17-0.247-0.246
	C5.719,36.031,5.627,36,5.519,36.016c-0.062,0-0.108,0.062-0.17,0.246l-0.062-0.061c0-0.092,0.047-0.17,0.108-0.248
	c0.061-0.061,0.154-0.061,0.247,0l0.524,0.248l0.878,0.293c0.154,0.123,0.308,0.291,0.416,0.463
	C7.307,37.049,7.137,37.111,6.937,37.141z M7.184,39.299c-0.309,0.309-0.632,0.57-1.002,0.818L6.12,40.055
	c0.324-0.186,0.632-0.4,0.94-0.633l0.169-0.168H7.123C6.983,39.377,6.814,39.5,6.66,39.607c-0.185,0.123-0.385,0.248-0.585,0.354
	L5.781,40.07l0.062,0.061h0.246c0.093,0.047,0.154,0.125,0.17,0.246c0,0.062-0.17,0.109-0.355,0.062l-0.247-0.107
	c-0.077-0.092-0.169-0.154-0.292-0.17l-0.108-0.061l0.062-0.109l0.293,0.109h0.107L5.657,39.93l0.355-0.275
	c0.108-0.062,0.108-0.107,0.108-0.17v-0.17c0.17,0.031,0.37,0.016,0.524-0.061c0.17-0.062,0.355-0.109,0.524-0.109
	C7.338,39.145,7.353,39.191,7.184,39.299L7.184,39.299z M11.592,23.081v-0.246l-0.184,0.062c-0.201,0.062-0.448,0-0.586-0.169
	c-0.108,0-0.17-0.062-0.17-0.108c0-0.062,0.062-0.17-0.062-0.17l-0.293,0.062c-0.139,0-0.278-0.062-0.354-0.17
	c-0.062-0.062,0-0.169,0.062-0.293c-0.123-0.062-0.262-0.124-0.354-0.247c-0.062-0.062,0-0.169,0.062-0.247
	c0.185-0.062,0.401-0.062,0.586,0c-0.046-0.062-0.062-0.139-0.062-0.231c0-0.062,0.17-0.062,0.524,0.107l0.247,0.108
	c0.062-0.108,0.124-0.108,0.308-0.108c0.17,0.077,0.324,0.17,0.463,0.293c0.185,0.123,0.354,0.292,0.461,0.462
	c0.062-0.077,0.155-0.077,0.248-0.031c0.031,0.015,0.045,0.046,0.045,0.077v0.247c-0.138-0.154-0.4-0.169-0.554-0.031l-0.031,0.031
	l-0.107-0.046c-0.154-0.139-0.278-0.323-0.355-0.524c-0.077-0.169-0.077-0.169-0.077-0.062c0.046,0.185,0.123,0.37,0.246,0.524
	c-0.262-0.093-0.494-0.232-0.709-0.417c-0.123-0.124-0.261-0.262-0.354-0.416c-0.062-0.108-0.108-0.108-0.108,0
	c0.062,0.169,0.185,0.323,0.355,0.416l-0.247-0.062c-0.17-0.062-0.417-0.108-0.586-0.169c-0.062,0-0.062,0,0,0.062
	c0.169,0.062,0.416,0.108,0.586,0.169c0.108,0,0.169,0.062,0.292,0.169c-0.185,0.062-0.385,0.108-0.585,0.108h-0.169
	c0.062,0,0.062,0.062,0.107,0.062c0.263,0.016,0.509-0.015,0.771-0.062c0.248,0.108,0.417,0.17,0.632,0.293
	c-0.154-0.047-0.355-0.016-0.462,0.107c-0.062,0.062,0,0.062,0.062,0l0.524-0.169l0.169,0.062c0.015,0.185,0.046,0.4,0.108,0.57
	l-0.108,0.062L11.592,23.081z M12.78,24.191c-0.354,0-0.463,0-0.463-0.062c0-0.062,0-0.107,0.109-0.169l0.046-0.108
	c-0.247-0.108-0.416-0.247-0.463-0.524l0.169-0.062c0.062-0.108,0.062-0.17,0-0.247c-0.092-0.108-0.123-0.263-0.107-0.417
	c0.062-0.17,0.293-0.17,0.585,0c0.108-0.247,0.293-0.354,0.463-0.247c-0.169,0-0.354,0.108-0.354,0.247v0.417
	c-0.062-0.108-0.17-0.17-0.247-0.247c-0.17-0.062-0.247-0.062-0.108,0c0.108,0.093,0.201,0.231,0.293,0.354
	c-0.139,0.124-0.339,0.185-0.525,0.17c-0.061,0-0.061,0.062,0,0.062c0.093,0,0.201-0.016,0.293-0.062
	c-0.062,0.262,0.046,0.524,0.293,0.631C12.888,24.068,12.827,24.129,12.78,24.191z M12.996,24.376c0-0.062,0.062-0.108,0.247-0.108
	s0.17-0.062,0.062-0.107c-0.169-0.093-0.339-0.247-0.462-0.417c-0.108-0.108-0.108-0.169,0-0.247l0.108-0.062l0.062-0.107
	l-0.062-0.355c-0.062-0.169,0-0.292,0.169-0.416c0.2,0,0.417,0.062,0.585,0.17c0-0.108,0.062-0.108,0.17-0.108
	s0.247,0.292,0.354,0.771l0.17,0.062c0.031-0.062,0.061-0.124,0.107-0.17c0.077,0.093,0.139,0.232,0.17,0.355
	c0.169,0.154,0.247,0.416,0.169,0.632c-0.124,0.108-0.169,0.308-0.108,0.463l-0.031-0.185c-0.047-0.201-0.062-0.432-0.062-0.633
	v0.525c-0.154-0.247-0.37-0.448-0.585-0.633c-0.047-0.169-0.062-0.354-0.062-0.524c0-0.169-0.062-0.246-0.062-0.107
	c-0.062,0.185-0.062,0.401,0,0.57c-0.201-0.231-0.417-0.447-0.585-0.709c-0.062-0.108-0.062-0.108-0.062-0.062
	c0.092,0.201,0.2,0.401,0.354,0.571c0.108,0.169,0.293,0.292,0.355,0.416c-0.17-0.062-0.293-0.062-0.462-0.108
	c-0.124-0.016-0.247-0.046-0.355-0.108c-0.108,0-0.108,0,0,0.062c0.123,0.078,0.277,0.108,0.416,0.108l0.524,0.17
	c0.154,0.092,0.293,0.246,0.354,0.4l0.108,0.293c-0.185-0.107-0.417-0.185-0.632-0.246c-0.139,0-0.292-0.047-0.416-0.108
	c-0.17-0.062-0.17-0.062-0.062,0.062c0.138,0.077,0.308,0.108,0.462,0.108c0.262,0.061,0.508,0.154,0.755,0.293v0.062
	c-0.062,0.061-0.062,0.107-0.062,0.246l0.062,0.231c-0.062-0.062-0.108-0.062-0.292,0.108c0.061-0.062,0.061-0.154,0-0.247
	c-0.139-0.2-0.386-0.37-0.679-0.447L13.659,24.9C13.366,24.885,13.119,24.653,12.996,24.376z M15.54,29.556
	c-0.062-0.108-0.17-0.293-0.293-0.524c-0.107-0.248-0.247-0.417-0.292-0.525c-0.062-0.123-0.062-0.276,0-0.416
	c0.062-0.108,0.062-0.247,0.108-0.355v-0.062c-0.062,0.108-0.108,0.293-0.17,0.417l-0.247-0.571
	c0.046-0.339,0.169-0.663,0.354-0.925c0.062-0.108,0.062-0.108,0-0.062c-0.185,0.246-0.339,0.509-0.416,0.817l-0.355-0.709
	c0.047-0.262,0.124-0.509,0.247-0.771c0.108-0.17,0.062-0.17-0.062,0c-0.092,0.169-0.17,0.385-0.247,0.585
	c-0.107-0.417-0.169-0.771-0.292-0.986l-0.062-0.062l0.062,0.108c0.046,0.324,0.124,0.616,0.247,0.925
	c-0.123-0.124-0.293-0.231-0.462-0.293c0.154,0.093,0.324,0.231,0.462,0.354c0.062,0.17,0.169,0.355,0.247,0.524
	c-0.201-0.124-0.417-0.247-0.632-0.354c-0.107,0-0.107,0,0,0.062c0.293,0.062,0.54,0.231,0.709,0.462l0.247,0.586
	c-0.062,0-0.169-0.108-0.292-0.355c-0.185-0.277-0.463-0.477-0.787-0.585c-0.077-0.046-0.108-0.139-0.108-0.247
	c0-0.062,0.062-0.108,0.247-0.108c-0.062-0.108-0.062-0.169-0.108-0.293l-0.062-0.107c-0.107-0.247-0.046-0.355,0.17-0.355
	c-0.17,0.062-0.17-0.062-0.17-0.108c-0.015-0.139,0.031-0.293,0.108-0.417c0.062-0.062,0.062-0.169,0.107-0.246l0.355,0.169
	c0.108,0.046,0.17,0.169,0.17,0.292l-0.062,0.293c0,0.062,0.062,0.062,0.17-0.061c0.046-0.108,0.123-0.185,0.247-0.247
	c0.062,0.062,0.169,0.108,0.247,0.17c0.062,0.246,0.046,0.478-0.062,0.708l-0.123,0.339c0.247-0.292,0.416-0.462,0.586-0.462v0.632
	c0,0.107-0.031,0.2-0.108,0.292c-0.107,0.093-0.185,0.262-0.169,0.416c0.246-0.169,0.293-0.108,0.293,0.062l-0.108,0.463
	c-0.062,0.246,0,0.354,0.108,0.293c0.107-0.062,0.169,0,0.169,0.062v0.247c-0.045,0.077-0.077,0.185-0.062,0.292
	c0,0.062,0.062,0.062,0.062,0.108h0.169c0.062,0,0.17,0,0.17,0.107v0.293c0,0.108,0.047,0.2,0.107,0.293
	c0.062,0.061,0.108,0.107,0.17,0.107l0.108-0.107c-0.108,0-0.169-0.062-0.169-0.293v-0.462c-0.062-0.108-0.108-0.247-0.169-0.247
	c-0.155-0.339-0.309-0.694-0.417-1.049h0.246c0.17,0.585,0.292,0.879,0.355,0.925c0.062,0.046,0.108,0.107,0.108,0.169
	c0,0.139,0.016,0.277,0.062,0.417c0.231-0.124,0.308-0.417,0.17-0.632c0-0.062-0.062-0.062-0.108-0.107
	c-0.107-0.047-0.185-0.124-0.247-0.248c-0.062-0.107,0-0.169,0.107-0.247c0.108-0.062-0.107-0.247-0.585-0.524
	c-0.246-0.169-0.293-0.292-0.246-0.416c0.045-0.124,0.107-0.062,0.169,0c0.047,0.031,0.108,0.062,0.169,0.062c0,0,0-0.17-0.107-0.17
	s-0.169-0.062-0.169-0.107v-0.771c-0.062-0.109-0.247-0.109-0.417,0c0.046-0.109,0.062-0.232,0.062-0.355
	c0-0.124-0.062-0.247-0.17-0.292l-0.123-0.293c0-0.108,0.062-0.169,0.17-0.247c-0.062-0.139-0.062-0.323,0-0.462
	c0.062-0.062,0.062-0.17,0.107-0.247c0-0.062,0.062-0.062,0.17,0c0.201,0.154,0.385,0.37,0.524,0.586
	c0.108-0.107,0.247-0.062,0.292,0.108c0.124,0.2,0.154,0.462,0.108,0.709c0.293-0.062,0.355,0.062,0.293,0.354
	c0.107,0.154,0.169,0.339,0.169,0.524c0.016,0.108-0.015,0.247-0.062,0.355c-0.062,0.062-0.062,0.169-0.107,0.247
	c0,0.062,0,0.062,0.062,0c0.062-0.108,0.169-0.17,0.292-0.17c0.078,0.124,0.108,0.277,0.108,0.417c0,0.092-0.046,0.169-0.108,0.246
	c-0.062,0.093-0.123,0.186-0.169,0.294c0,0.061,0,0.107,0.107,0.107l0.169-0.062c0.108,0,0.108,0.062,0,0.247
	c-0.062,0.169-0.169,0.293-0.246,0.462c-0.047,0.092-0.062,0.185-0.062,0.293c0,0.093-0.03,0.185-0.062,0.292v-0.632
	c-0.062-0.247-0.062-0.524-0.108-0.771c0.092-0.138,0.169-0.309,0.247-0.462c0.062-0.107,0.062-0.169,0-0.062
	c-0.046,0.154-0.124,0.293-0.247,0.417c-0.062-0.246-0.17-0.585-0.247-0.925c0.108-0.185,0.17-0.417,0.17-0.632
	c0-0.247,0-0.247-0.062-0.061c0,0.246-0.108,0.416-0.248,0.632c-0.062-0.293-0.153-0.555-0.292-0.832
	c0.047-0.17,0.062-0.355,0.062-0.525c0-0.169,0-0.169-0.062-0.061c0.015,0.107-0.015,0.247-0.062,0.354l-0.247-0.571l-0.108-0.354
	c-0.062-0.107-0.062-0.107-0.062,0l0.108,0.417c-0.062-0.108-0.169-0.185-0.293-0.247c-0.108-0.062-0.108-0.062-0.062,0
	c0.139,0.124,0.293,0.262,0.417,0.416l0.293,0.709c-0.154-0.169-0.37-0.292-0.586-0.354c-0.108-0.062-0.108,0,0,0.062
	c0.247,0.169,0.462,0.4,0.632,0.631l0.247,0.709c-0.186-0.123-0.355-0.292-0.462-0.462c-0.062-0.062-0.108-0.062,0,0.062
	c0.154,0.201,0.339,0.4,0.524,0.586l0.169,0.632c-0.185-0.186-0.4-0.355-0.632-0.463c-0.108-0.062-0.108-0.062,0,0.062
	c0.278,0.2,0.494,0.432,0.709,0.709c0.062,0.354,0.108,0.709,0.108,1.048c0,0.108-0.108,0.246-0.293,0.293l-0.062,0.524h-0.292
	C15.801,29.803,15.663,29.68,15.54,29.556z M15.895,30.08h0.246c-0.108,0.524-0.246,1.11-0.293,1.449l-0.108-0.062
	C15.833,31.021,15.895,30.558,15.895,30.08z M14.075,33.07c-0.062,0-0.169-0.107-0.354-0.293c-0.169-0.168-0.246-0.292-0.169-0.462
	c-0.077-0.046-0.108-0.138-0.108-0.247c-0.062-0.061-0.062-0.154,0-0.246c0.062-0.062,0.169-0.062,0.416,0.108
	c0.062-0.108,0.062-0.246,0-0.355l-0.185-0.292c-0.062-0.154-0.154-0.308-0.293-0.417c-0.062-0.169-0.108-0.247-0.062-0.293
	c0.046-0.046,0.108,0,0.169,0.062c0.17-0.17,0.293-0.247,0.355-0.17c0.077,0.124,0.107,0.278,0.107,0.417
	c0.062,0.185,0.062,0.4,0,0.57l-0.077,0.092l0.062,0.062c0.015,0.154,0,0.324-0.062,0.462c-0.016,0.062,0.016,0.125,0.062,0.171
	v-0.171c0-0.076,0.015-0.154,0.062-0.229c0-0.062,0.062-0.17,0.062-0.247l-0.062-0.062c0.062,0,0.062-0.062,0.107-0.062v-0.463
	c0.016-0.139,0-0.277-0.046-0.416c0-0.062-0.062-0.169-0.062-0.247c0-0.062-0.047-0.107-0.108-0.107
	c-0.062,0-0.17,0.062-0.293,0.246c0.062-0.169,0.108-0.417,0.17-0.585c0.062-0.108,0.108-0.108,0.169-0.108
	c0.062,0,0.108,0.046,0.108,0.108c0,0.062,0.062,0.062,0.108-0.062c0.046-0.123,0.062-0.107,0.108-0.062l0.108,0.108
	c0,0.062,0.062,0.108,0.062,0.169c0,0.108,0.062,0.247,0.062,0.416c0.015,0.108-0.016,0.247-0.062,0.355
	c-0.062,0.062-0.062,0.107-0.062,0.247c0,0.169,0.015,0.354,0.062,0.524c0.046,0,0.077-0.031,0.108-0.062
	c0.046-0.046,0.107-0.062,0.169-0.062c0.062,0,0.062,0.107,0.062,0.292c0,0.17,0,0.247,0.062,0.062
	c0.061-0.17,0.061-0.247,0.169-0.247c0.108,0,0.108,0.17,0.062,0.585c-0.231,0.154-0.417,0.371-0.586,0.587
	c-0.062-0.109-0.062-0.246,0-0.355c0.062-0.062,0.062-0.169,0.108-0.247c0-0.062,0.062-0.17,0.062-0.247
	c0.062-0.168,0.062-0.168,0-0.061c-0.062,0.061-0.062,0.108-0.107,0.247c-0.062,0.062-0.062,0.108-0.108,0.169
	c-0.062-0.169-0.062-0.416-0.108-0.586c-0.046-0.169-0.062-0.169-0.062,0c0.062,0.308,0.108,0.617,0.108,0.926
	c-0.092-0.109-0.231-0.201-0.355-0.293c-0.107-0.107-0.246-0.17-0.292-0.293c-0.062-0.061-0.108-0.061-0.062,0.061
	c0.046,0.125,0.247,0.247,0.354,0.417c0.108,0.169,0.293,0.248,0.293,0.292c0.062,0.062,0.062,0.062,0.062,0.109
	c-0.062,0.062-0.108,0.17-0.247,0.246c-0.062-0.062-0.062-0.062-0.062-0.109C14.121,33.117,14.121,33.07,14.075,33.07z
	 M10.298,36.863c0.077-0.094,0.17-0.17,0.293-0.246c0.354-0.17,0.771-0.355,1.188-0.523h0.092l0.062,0.107l-0.108,0.061
	c-0.093,0.047-0.185,0.076-0.293,0.062c-0.123,0.014-0.247,0.045-0.354,0.107c-0.139,0.031-0.247,0.154-0.247,0.293
	c0,0.061-0.062,0.107-0.108,0.17l-0.416,0.246h-0.293L10.298,36.863z M11.177,37.219h-0.17l-0.354-0.061l0.354-0.172L11.177,37.219
	v-0.061l-0.062-0.172c-0.047-0.107,0-0.246,0.092-0.293c0,0,0.015,0,0.015-0.016c0.108-0.061,0.231-0.107,0.354-0.107
	c0.062,0,0.062,0.107,0,0.293C11.485,37.002,11.331,37.111,11.177,37.219z M9.65,38.559l-0.062-0.168l-0.292,0.354l-0.247,0.168
	c-0.077,0.078-0.185,0.109-0.293,0.109l-0.354-0.17l0.169-0.107l0.062,0.061c-0.062,0.107,0,0.107,0.108-0.061l0.293-0.293
	c0-0.246-0.046-0.477-0.107-0.709c-0.047-0.201-0.124-0.402-0.247-0.584c0-0.062-0.17-0.062-0.462-0.062
	c0.2-0.064,0.432-0.064,0.632,0l0.247,0.105l0.108-0.061l-0.247-0.109h0.108l0.108,0.109l0.062,0.061
	c0.231,0.232,0.432,0.479,0.585,0.773c0.062,0.121,0.062,0.275,0,0.416C9.835,38.559,9.697,38.605,9.65,38.559z M12.117,40.008
	l0.107,0.062l-0.062,0.061l-0.293,0.062c-0.124,0.092-0.262,0.17-0.416,0.246l-0.17-0.062l-0.062-0.107
	c0.062-0.061,0.108-0.107,0.169-0.107c0.062-0.045,0.155-0.061,0.247-0.061l0.247,0.061C11.87,40.146,12.117,40.008,12.117,40.008
	L12.117,40.008z M11.763,40.008c-0.17,0-0.292,0.109-0.354,0.109H11.3c-0.139-0.17-0.308-0.326-0.462-0.463l-0.463-0.416
	c0.108-0.062,0.292,0,0.585,0.061L11.763,40.008z M13.242,37.805h0.462c0.432-0.248,0.833-0.525,1.187-0.879
	c0.448-0.355,0.941-0.633,1.465-0.879c0.107-0.062,0.107-0.107,0-0.107c-0.154-0.047-0.308-0.062-0.462-0.062
	c-0.062,0.062-0.062,0.107,0,0.107h0.246c-0.417,0.248-0.833,0.463-1.187,0.709c0-0.17,0.062-0.461,0.062-0.816
	c-0.016-0.123-0.046-0.246-0.108-0.355c-0.062-0.061,0-0.107,0.169-0.17l0.108-0.061v0.246l-0.17-0.061v0.107
	c0.062,0.076,0.139,0.123,0.247,0.17h0.832c0.293,0,0.462,0.061,0.417,0.246v0.416c0.062,0.309,0.185,0.602,0.354,0.879
	c-0.077,0.17-0.169,0.324-0.292,0.463l-0.524,0.338c-0.463,0.355-1.125,0.771-1.958,1.281c-1.356,0.016-2.698-0.186-3.993-0.586
	l-0.169-0.062l0.062-0.062c0.062-0.107,0.169-0.17,0.169-0.291c0-0.387-0.154-0.756-0.462-0.988v-0.061l0.169-0.062
	c0.401,0,0.801,0.062,1.187,0.17c0.355,0.061,0.771,0.17,1.233,0.246C12.564,37.727,12.903,37.773,13.242,37.805z M12.472,37.557
	c-0.169-0.062-0.463-0.062-0.879-0.17l0.355-0.107c0.124,0.061,0.292,0.016,0.355-0.107C12.364,37.264,12.426,37.434,12.472,37.557z
	 M14.707,34.459c-0.124,0.107-0.169,0.309-0.108,0.461c-0.231,0.125-0.416,0.293-0.586,0.465c-0.154,0.152-0.292,0.338-0.416,0.521
	c-0.046,0.125-0.154,0.203-0.293,0.248c-0.139,0.031-0.292,0.014-0.416-0.061l-0.061,0.244l-0.709,0.418l-0.354,0.17
	c0.045-0.109,0.062-0.232,0.062-0.355l0.108-0.107c0.463-0.248,0.771-0.463,0.833-0.709c0.062-0.154,0.154-0.309,0.292-0.416
	c0.093-0.125,0.17-0.264,0.247-0.418v-0.461c0.108,0.107,0.247,0.17,0.293,0.062c0.124-0.279,0.293-0.525,0.478-0.771
	c0.154-0.232,0.339-0.432,0.524-0.633l0.463-0.523v0.246c-0.278,0.338-0.524,0.693-0.771,1.047
	c-0.292,0.402-0.524,0.818-0.709,1.281c-0.062,0.17-0.185,0.324-0.354,0.416c-0.092,0.047-0.17,0.092-0.247,0.17
	c-0.062,0.107,0,0.107,0.062,0.061c0.062-0.061,0.138-0.121,0.246-0.168c0.385-0.324,0.724-0.711,1.002-1.111v-0.34l0.108-0.168
	c0,0.168,0,0.354,0.061,0.354c0.062,0,0.108-0.061,0.17-0.168c0.062-0.109,0.246-0.525,0.524-1.109
	c-0.062,0.137-0.062,0.322,0,0.461c-0.169,0.107-0.247,0.293-0.107,0.586L14.707,34.459z M17.05,32.13
	c0,0.17-0.062,0.339-0.17,0.463c-0.293,0.355-0.417,0.523-0.354,0.584c0.062,0.154,0.046,0.34-0.062,0.463
	c-0.169,0.232-0.385,0.447-0.585,0.633c0.062,0.107,0,0.248-0.169,0.355C15.478,34.75,15.246,34.857,15,34.92
	c0.417-0.246,0.725-0.631,0.833-1.109c0.092-0.092,0.231-0.17,0.354-0.246c0.108-0.062,0.108-0.107,0.062-0.062
	c-0.138,0.047-0.293,0.123-0.416,0.232c0.123-0.293,0.231-0.57,0.292-0.879c0.185-0.201,0.37-0.416,0.524-0.632
	c0.108-0.109,0.108-0.17,0-0.063c-0.124,0.232-0.293,0.417-0.462,0.587c0.108-0.293,0.169-0.633,0.293-0.988
	c0.062-0.246,0-0.246,0-0.107l-0.062,0.247l-0.17-0.355l0.108,0.462c-0.062,0.248-0.108,0.524-0.169,0.771
	c-0.093-0.275-0.247-0.523-0.416-0.771c-0.108-0.168-0.17-0.168-0.062,0c0.169,0.293,0.308,0.603,0.416,0.925
	c-0.062,0.293-0.154,0.555-0.292,0.818c-0.062-0.109-0.17-0.186-0.293-0.248c-0.062-0.061-0.062,0,0,0.062
	c0.092,0.076,0.169,0.186,0.247,0.293c-0.077,0.184-0.186,0.385-0.355,0.523c-0.124,0.141-0.262,0.293-0.416,0.416
	c0.17-0.262,0.247-0.555,0.17-0.863c0-0.061,0.046-0.107,0.107-0.107c0.062,0,0.108-0.045,0.108-0.107
	c-0.062-0.107-0.108-0.232-0.108-0.354h0.247c0.107-0.062,0.061-0.109,0-0.248c-0.124-0.141-0.185-0.34-0.17-0.523
	c0-0.109,0.062-0.171,0.247-0.109c0.061,0,0.061-0.062,0-0.292l-0.154-0.247c-0.108-0.294-0.062-0.355,0.169-0.294l0.293,0.17
	c0.169,0.062,0.293-0.062,0.293-0.354c0-0.062,0.062-0.062,0.169-0.062c0.139,0,0.262-0.092,0.309-0.231
	c0.107-0.108,0.169,0,0.247,0.293c0.062,0.292,0.062,0.524,0.292,0.524C17.05,31.946,17.05,32.007,17.05,32.13z M17.358,31.205
	c0,0.062-0.015,0.124-0.062,0.17c-0.062,0.062-0.138,0.092-0.246,0.107l-0.108-0.169c0-0.17-0.062-0.339-0.17-0.463
	c0.062-0.077,0.139-0.108,0.247-0.108c0.062-0.062,0.062,0-0.062,0s-0.169,0.108-0.293,0.108c0.062-0.231,0.154-0.447,0.293-0.632
	c0.062-0.107,0-0.107-0.062,0c-0.108,0.154-0.231,0.339-0.292,0.509c-0.062-0.062-0.062-0.17-0.108-0.247
	c0-0.108-0.062-0.108-0.062,0c0.015,0.124,0.046,0.247,0.108,0.354c-0.17,0.247-0.293,0.355-0.355,0.293
	c0.046-0.354,0.123-0.709,0.247-1.048c0.169-0.169,0.293-0.247,0.417-0.169c0.169-0.107,0.292-0.169,0.416-0.062
	c0.062,0.108,0.108,0.17,0.062,0.293c-0.016,0.123-0.046,0.247-0.108,0.354c0.108,0,0.17,0.062,0.247,0.17
	c-0.047,0.23-0.17,0.416-0.355,0.524C17.296,31.128,17.358,31.205,17.358,31.205z"/>
<path fill="#FFFFFF" d="M2.589,37.912c0.109,0.062,0.247,0.062,0.293-0.062c0.062-0.061,0.062-0.154,0-0.246l-0.062-0.062
	C2.76,37.48,2.76,37.48,2.713,37.604C2.698,37.604,2.589,37.912,2.589,37.912z M1.233,36.986c0.108,0.109,0.17,0.172,0.355,0
	c0.062-0.061,0.062-0.154,0-0.246l-0.062-0.062H1.465L1.233,36.986z M3.222,37.975c0-0.109,0.062-0.17-0.062-0.248
	c0.062,0,0.108,0.047,0.108,0.107c0.046,0.047,0.108,0.062,0.169,0.062c0,0-0.107-0.062-0.107,0
	c-0.016,0.125-0.046,0.246-0.108,0.354L3.16,38.666l0.354-0.246c0.062-0.062,0.247-0.246,0.247-0.293c0-0.045,0-0.105-0.062-0.105
	v-0.062l0.107,0.062c0.062,0,0.062,0.061,0.108,0.061c-0.108-0.061-0.17,0.061-0.293,0.107l-0.586,0.586l-0.062-0.062L3.222,37.975z
	 M2.42,38.096c0,0.062-0.062,0.17-0.062,0.248c0,0.061,0,0.061,0.062,0.107v0.062l-0.169-0.17c-0.046,0-0.078-0.031-0.108-0.062
	v-0.061c0.062,0,0.108,0.061,0.108,0c0.061-0.062,0.108-0.109,0.108-0.172l0.247-0.354c0-0.062,0.107-0.107,0.107-0.168
	c0-0.062,0-0.109-0.062-0.109c0.062,0.062,0.108,0.062,0.169,0.109c0.062,0.045,0.108,0.061,0.17,0.105
	c0.124,0.062,0.169,0.232,0.124,0.355v0.061c-0.077,0.125-0.231,0.172-0.354,0.109c-0.031,0-0.062-0.031-0.062-0.047
	c-0.062,0-0.062,0-0.062-0.062C2.636,38.021,2.42,38.096,2.42,38.096z M1.88,37.279c0-0.061,0.108-0.107,0.108-0.168
	c0-0.062,0-0.109-0.062-0.109h0.077l0.524,0.355l-0.169,0.17c0.108-0.109,0.062-0.17-0.062-0.295l-0.062-0.061
	c0-0.061,0-0.061-0.062,0l-0.169,0.293c0.062,0.076,0.154,0.076,0.247,0.029c0.03-0.014,0.046-0.045,0.046-0.076
	c-0.062,0.062-0.108,0.109-0.108,0.17c0,0.062-0.062,0.107-0.108,0.17v-0.062c0.108-0.107,0.062-0.168-0.062-0.246l-0.247,0.309
	c0,0.061-0.062,0.061-0.062,0.107c0,0.062,0.046,0.109,0.108,0.109c0.092,0.061,0.2,0.061,0.293,0l-0.108,0.246l-0.632-0.416v-0.062
	H1.48c0.062-0.062,0.108-0.109,0.108-0.17L1.88,37.279z M1.295,37.604c-0.015,0.062,0.016,0.123,0.062,0.17l-0.062-0.062
	c-0.046,0-0.077-0.031-0.107-0.061v-0.525c0-0.061,0-0.061-0.062-0.107l-0.062,0.107c-0.062,0.061-0.062,0.107-0.108,0.17
	c0,0.062,0,0.062,0.062,0.107c-0.045,0-0.077-0.029-0.107-0.062c-0.062-0.061-0.108-0.061-0.17-0.107c0.062,0,0.062,0.062,0.108,0
	c0.046-0.061,0.107-0.107,0.107-0.168l0.247-0.355c0.062-0.062,0.062-0.107,0.108-0.168c0-0.064,0-0.064-0.062-0.109
	c0.062,0.062,0.108,0.109,0.17,0.109c0.062,0,0.108,0.045,0.108,0.105c0.108,0.109,0.247,0.17,0.108,0.355
	c0,0.109-0.169,0.17-0.293,0.109H1.295V37.604z M8.187,37.912l-0.17-0.355l-0.062,0.418L8.187,37.912z M5.119,38.605
	c-0.016,0.061,0.015,0.123,0.061,0.17c0.062,0.062,0.062,0.062,0.108,0.062c0.108-0.062,0.108-0.109,0.108-0.248
	c0-0.061-0.062-0.107-0.108-0.17c-0.046-0.062-0.108,0-0.169,0V38.605z M5.119,38.375c0.03-0.031,0.077-0.047,0.107-0.062
	c0.062-0.062,0.062-0.107,0.062-0.248c0-0.09-0.062-0.152-0.139-0.168H5.057v0.062L5.119,38.375z M4.348,38.729
	c-0.016,0.062,0.015,0.123,0.062,0.17c0,0.061,0.062,0.061,0.107,0c0.047-0.061,0.17-0.061,0.17-0.246
	c0-0.109-0.062-0.109-0.108-0.17H4.409v0.246H4.348z M4.286,38.482c0.107,0,0.107-0.062,0.169-0.062c0-0.062,0.062-0.107,0.062-0.17
	c0.015-0.076-0.045-0.154-0.138-0.168H4.348c-0.032,0-0.062,0.029-0.062,0.045V38.482z M7.939,38.096c0,0.062-0.062,0.17,0,0.248
	c0.062,0.061,0.062,0.061,0.108,0.061v0.062H7.815c0.062,0,0.108-0.047,0.108-0.109c-0.015-0.092,0.015-0.199,0.062-0.293
	l0.107-0.631h0.062l0.354,0.709c0,0.062,0.062,0.107,0.109,0.17c0.045,0.062,0.061,0.062,0.107,0.062v0.061H8.556
	c-0.062,0-0.108,0.061-0.17,0.061V38.42c0,0,0.108,0,0.062-0.107c-0.045-0.107,0-0.062,0-0.107l-0.107-0.17l-0.293,0.061H7.939z
	 M7.461,37.494l0.062,0.295c-0.062-0.17-0.17-0.295-0.293-0.248c-0.247,0-0.247,0.293-0.247,0.523c0,0.248,0.108,0.465,0.417,0.418
	c0.308-0.047,0.169-0.17,0.169-0.355l0.062,0.355L7.569,38.42c-0.062,0.062-0.138,0.109-0.246,0.123
	c-0.248,0.062-0.463-0.107-0.525-0.416c-0.062-0.309,0.108-0.586,0.354-0.586c0.092-0.014,0.2,0.016,0.293,0.062v-0.109H7.461z
	 M6.537,37.912c0-0.062-0.062-0.107-0.062-0.17c-0.062,0-0.062-0.062-0.108-0.062H6.305c0.062,0,0.108-0.061,0.17-0.061
	c0.062,0,0.107-0.062,0.169-0.062v-0.062c-0.062,0-0.062,0.062-0.107,0.062c-0.016,0.062,0.015,0.123,0.062,0.17l0.062,0.463
	c-0.016,0.061,0.015,0.123,0.062,0.168c0,0.062,0.062,0.062,0.108,0.062v0.062H6.66c-0.062,0-0.108,0.061-0.169,0.061v-0.047
	c0.062,0,0.108,0,0.108-0.061v-0.17L6.537,37.912z M5.704,38.096V37.85c-0.062-0.061-0.062-0.061-0.108,0v-0.061
	c0.062,0,0.124-0.016,0.17-0.062h0.169v0.062c-0.062,0-0.107,0-0.107,0.061c0,0.062,0.061,0.172,0.061,0.246l0.062,0.463
	c0,0.17,0.062,0.246,0.247,0.17c0.062,0,0.123-0.016,0.169-0.062c0.046-0.045,0.062-0.107,0.062-0.17l0.062-0.061l0.062,0.293H6.49
	c-0.231,0-0.432,0.047-0.632,0.109c0.03-0.033,0.077-0.047,0.108-0.062v-0.246l-0.108-0.418L5.704,38.096z M4.933,38.205
	c0.015-0.062-0.016-0.123-0.062-0.17c-0.062-0.061-0.062-0.061-0.108-0.061c0.062,0,0.108-0.062,0.169-0.062h0.108
	c0.123-0.047,0.293,0.016,0.339,0.137c0,0.016,0.016,0.016,0.016,0.033c0,0.123-0.062,0.246-0.17,0.293
	c0.062,0,0.123,0.016,0.17,0.061c0.061,0.061,0.107,0.107,0.107,0.17c0,0.092-0.046,0.17-0.107,0.246
	c0.061,0.061-0.062,0.107-0.108,0.107c0,0.062-0.108,0.062-0.108,0.062c-0.077,0-0.154,0.016-0.247,0.062v-0.062
	c0,0,0.108,0,0.108-0.062v-0.168C5.057,38.775,4.933,38.205,4.933,38.205z M4.178,38.375c0-0.062-0.062-0.17-0.062-0.248
	c0-0.062-0.062-0.062-0.108,0v-0.062h0.355c0.108,0,0.293,0,0.354,0.172c0.062,0.107,0,0.246-0.108,0.246
	c0.062,0,0.123,0.014,0.17,0.061c0.062,0.062,0.107,0.109,0.107,0.17c0,0.109,0,0.172-0.107,0.246
	c-0.062,0.047-0.154,0.062-0.248,0.062H4.363c-0.107,0-0.107,0.062-0.247,0.062v-0.047c0.062,0,0.108,0,0.108-0.062
	s-0.062-0.17-0.062-0.246L4.178,38.375z M12.117,38.514l-0.062-0.418l-0.17,0.418H12.117z M13.72,38.375v-0.17
	c-0.03-0.031-0.077-0.047-0.108-0.062v-0.061h0.355v0.061c-0.062,0-0.062,0-0.108,0.062v0.246l0.062,0.416v0.246
	c0,0.062,0.062,0.062,0.108,0.062h-0.354c0,0,0.108,0,0.108-0.062v-0.168L13.72,38.375z M12.78,38.328v-0.246
	c0-0.061-0.062-0.061-0.108-0.061v-0.062c0.062,0,0.108,0.062,0.17,0.062h0.246v0.061c0,0-0.107,0-0.107,0.061
	c0.015,0.078-0.016,0.154-0.062,0.248l-0.062,0.461c0,0.17,0,0.246,0.107,0.246c0.108,0,0.108,0.062,0.17,0
	c0.062-0.061,0.107-0.107,0.107-0.17h0.062l-0.045,0.295h-0.062c-0.247-0.062-0.462-0.062-0.709-0.109c0.062,0,0.107,0,0.107-0.061
	c-0.015-0.062,0.016-0.125,0.062-0.168L12.78,38.328z M11.763,38.559c-0.016,0.094-0.062,0.17-0.108,0.246
	c-0.062,0.062,0.062,0.062,0.108,0.107h-0.108c-0.046-0.027-0.107-0.045-0.169-0.061c0.062,0,0.107-0.047,0.107-0.107
	s0.108-0.17,0.108-0.293l0.293-0.586h0.062l0.107,0.818c0,0.061,0,0.168,0.062,0.168c0.062,0,0.062,0.061,0.108,0.061h-0.17
	c-0.062,0-0.107-0.061-0.169-0.061v-0.061h0.107V38.42h-0.355L11.763,38.559z M11.701,38.021c0-0.109,0-0.172-0.17-0.248
	c-0.169-0.062-0.107,0-0.107,0l-0.108,0.709c0,0.107,0,0.107,0.108,0.17v0.061c-0.077,0.016-0.154-0.016-0.247-0.061H10.93V38.59
	c0.108,0,0.169,0,0.169-0.107l0.108-0.709c-0.031-0.031-0.077-0.047-0.108-0.062c-0.107,0-0.169,0-0.247,0.17h-0.062l0.062-0.248
	l0.833,0.109C11.701,37.773,11.701,38.021,11.701,38.021z M10.468,37.912v-0.17c0-0.062-0.062-0.062-0.108-0.062v-0.061
	c0.062,0,0.108,0.061,0.169,0.061h0.247c0,0-0.108,0-0.108,0.062c0.016,0.062-0.015,0.123-0.062,0.17l-0.062,0.416
	c0,0.062-0.062,0.107,0,0.168c0,0.062,0.062,0.062,0.108,0.062v0.062c-0.062,0-0.108-0.062-0.169-0.062
	c-0.062,0-0.124-0.016-0.17-0.062v-0.061c0.062,0,0.108,0,0.108-0.061c0.047-0.047,0.062-0.109,0.062-0.17
	C10.468,38.205,10.468,37.912,10.468,37.912z M16.249,37.158l-0.354-0.248l0.107,0.416L16.249,37.158z M14.599,38.328l-0.292-0.293
	l0.062,0.416L14.599,38.328z M16.063,37.449c0,0.062,0.062,0.17,0.062,0.246c0.062,0.062,0.108,0,0.108-0.062v0.109
	c-0.062,0.062-0.062,0.062-0.108,0.062s-0.062,0.061-0.108,0.061v-0.061c0.062-0.062,0.062-0.062,0.062-0.109
	c-0.062-0.107-0.062-0.168-0.108-0.293l-0.17-0.633l0.71,0.463c0.031,0.031,0.077,0.047,0.108,0.062
	c0.031,0.031,0.077,0.031,0.108,0v0.062c-0.062,0-0.108,0.045-0.108,0.107c-0.062,0.062-0.108,0.062-0.108,0.107l-0.062-0.061
	c0-0.062,0.062-0.062,0.062-0.109c0-0.045-0.062-0.062-0.108-0.062l-0.108-0.107l-0.293,0.17L16.063,37.449z M14.876,37.619
	c-0.03-0.047-0.107-0.062-0.154-0.016c-0.015,0-0.015,0.016-0.015,0.016v-0.062c0.062,0,0.062,0,0.107-0.062
	c0.062,0,0.062,0,0.108-0.061l0.94,0.293l-0.293-0.354c-0.062-0.062-0.107-0.109-0.107-0.172c0-0.061-0.108,0-0.17,0
	c0.031-0.029,0.077-0.043,0.108-0.061c0-0.062,0-0.109,0.062-0.109v0.064c0,0.062-0.062,0.062-0.062,0.105
	c0,0.047,0.107,0.172,0.169,0.248l0.354,0.525v0.061c-0.062,0-0.108,0-0.108-0.061L14.876,37.619l0.309,0.402
	c0.061,0.061,0.107,0.105,0.107,0.168c0.062,0.061,0.108,0,0.17,0c0,0.061-0.062,0.061-0.108,0.107
	c-0.062,0-0.062,0.061-0.108,0.107v-0.061c0.046-0.047,0.062-0.107,0.062-0.17s-0.062-0.109-0.107-0.17L14.876,37.619z
	 M14.414,38.559c-0.015,0.078,0.016,0.154,0.062,0.246c0,0.062,0.108,0,0.108,0c-0.062,0-0.062,0.062-0.108,0.062
	c-0.046,0-0.062,0.061-0.108,0.061c0.062-0.061,0.062-0.061,0.062-0.168c0.015-0.094,0-0.201-0.062-0.293l-0.108-0.633l0.586,0.523
	l0.108,0.109h0.108c-0.062,0-0.108,0.062-0.17,0.107c-0.061,0-0.108,0.062-0.169,0.109v-0.062c0.062,0,0.108-0.062,0.062-0.107
	c0-0.062-0.062-0.062-0.107-0.109l-0.108-0.107l-0.292,0.107v0.062C14.275,38.451,14.414,38.559,14.414,38.559z"/>
<path fill="#FFFFFF" d="M2.297,31.776c-0.03-0.154-0.092-0.324-0.169-0.462v-0.062l0.524-0.293
	c-0.062-0.262-0.092-0.494-0.107-0.771l-0.586-0.124V29.14l0.586-0.107c0.015-0.262,0.045-0.509,0.107-0.771l-0.292-0.169h0.169
	l0.247,0.107v0.077c-0.062,0.278-0.108,0.54-0.108,0.818v0.062l-0.586,0.107v0.709l0.586,0.108v0.062
	c0,0.277,0.046,0.539,0.108,0.817v0.062l-0.54,0.293l0.108,0.354L2.297,31.776z M3.36,33.533l0.17,0.17l0.524-0.246h0.062
	c0.169,0.201,0.385,0.4,0.586,0.584l-0.231,0.604c0.154,0.152,0.339,0.291,0.524,0.414l0.462-0.414h0.062
	c0.247,0.168,0.493,0.307,0.771,0.414h0.062L6.29,35.693c0.169,0.061,0.524,0.168,0.632,0.246l0.293-0.525h0.062
	c0.278,0.062,0.539,0.107,0.833,0.123H8.17l0.108,0.586h0.709l0.107-0.586h0.062c0.278-0.016,0.555-0.045,0.833-0.107l0.293,0.523
	l0.632-0.246l-0.062-0.586h0.062c0.277-0.107,0.524-0.264,0.771-0.416l0.061-0.061l0.463,0.414l0.585-0.414l-0.247-0.588h0.092
	c0.231-0.152,0.416-0.369,0.586-0.584V33.41l0.585,0.293c0.155-0.186,0.293-0.385,0.416-0.586l-0.416-0.463v-0.031
	c0.108-0.246,0.293-0.462,0.416-0.771v-0.061l0.586,0.061c0.062-0.168,0.17-0.524,0.247-0.632l-0.524-0.293v-0.062
	c0.061-0.277,0.107-0.539,0.107-0.817v-0.062l0.586-0.108v-0.709l-0.586-0.108v-0.062c-0.015-0.277-0.046-0.54-0.107-0.817v-0.062
	l0.524-0.293c-0.062-0.169-0.17-0.524-0.247-0.632l-0.586,0.062v-0.062c-0.092-0.277-0.246-0.524-0.416-0.771v0.062l0.416-0.462
	c-0.107-0.109-0.292-0.463-0.416-0.571l-0.585,0.247c-0.154-0.231-0.37-0.417-0.586-0.57l-0.062-0.124l0.247-0.569l-0.587-0.417
	l-0.461,0.417h-0.062c-0.246-0.109-0.524-0.247-0.771-0.354h-0.062l0.062-0.571c-0.107-0.062-0.524-0.17-0.632-0.247l-0.293,0.524
	H9.958c-0.277-0.062-0.539-0.108-0.832-0.108H9.064l-0.092-0.602H8.34l-0.108,0.571H8.155C7.877,23.667,7.6,23.698,7.323,23.76
	H7.261l-0.324-0.524c-0.108,0.062-0.524,0.169-0.632,0.247l0.062,0.57H6.305l-0.709,0.37H5.534l-0.462-0.416
	c-0.107,0.062-0.169,0.17-0.247,0.247v-0.169l0.247-0.17h0.047l0.416,0.416l0.709-0.354L6.12,23.312h0.062
	c0.246-0.108,0.493-0.169,0.77-0.247h0.062l0.293,0.525c0.262-0.062,0.508-0.108,0.771-0.108l0.108-0.571h0.878l0.108,0.571
	c0.262,0.015,0.509,0.046,0.771,0.108l0.292-0.525h0.062c0.108,0.062,0.632,0.17,0.771,0.247h0.062v0.586l0.725,0.354l0.462-0.401
	h0.062c0.185,0.17,0.386,0.324,0.586,0.463l-0.247,0.57l0.524,0.524l0.586-0.246v0.062c0.062,0.107,0.416,0.524,0.462,0.631v0.062
	l-0.416,0.463l0.354,0.709l0.586-0.062v0.062c0.108,0.247,0.17,0.494,0.247,0.771v-0.045l-0.524,0.293
	c0.061,0.262,0.107,0.493,0.107,0.771l0.586,0.107v1.018l-0.54,0.108c-0.015,0.262-0.046,0.508-0.108,0.771l0.524,0.292v0.062
	c-0.046,0.262-0.124,0.509-0.247,0.771V32.1l-0.632-0.061l-0.354,0.709l0.416,0.461v0.109c-0.062,0.107-0.416,0.521-0.462,0.631
	v0.062l-0.57-0.23l-0.524,0.523l0.292,0.586H12.95c-0.108,0.061-0.524,0.414-0.632,0.461l-0.062,0.062l-0.478-0.523l-0.71,0.354
	l0.062,0.633h-0.062l-0.771,0.246h-0.062L9.943,35.6c-0.262,0.061-0.509,0.107-0.771,0.107l-0.108,0.586H8.14l-0.108-0.586
	c-0.247-0.061-0.524-0.061-0.771-0.107l-0.292,0.523H6.907c-0.247-0.107-0.494-0.17-0.771-0.246H6.074l0.062-0.633l-0.709-0.354
	l-0.462,0.414h0.123c-0.108-0.061-0.524-0.414-0.632-0.461H4.393l0.232-0.57l-0.54-0.555l-0.616,0.23v-0.062L3.36,33.641V33.533z"/>
<path fill="#FFFFFF" d="M8.648,34.521c-0.725-0.018-1.403-0.172-2.066-0.465H6.475l2.173-2.681l2.112,2.681l-0.108,0.062
	C10.02,34.396,9.342,34.521,8.648,34.521z M6.721,33.996c1.218,0.525,2.606,0.525,3.823,0l-1.896-2.39L6.721,33.996z M12.24,33.01
	l-1.942-2.868l3.222-1.171v0.108c0.17,1.402-0.308,2.835-1.295,3.853C12.225,32.949,12.24,33.01,12.24,33.01z M10.529,30.204
	l1.711,2.574c0.864-0.985,1.296-2.265,1.172-3.561L10.529,30.204z M5.057,33.01l-0.062-0.061c-0.94-1.035-1.403-2.453-1.233-3.855
	v-0.109l3.222,1.233C6.983,30.204,5.057,33.01,5.057,33.01z M3.884,29.156c-0.123,1.295,0.309,2.589,1.188,3.561l1.757-2.513
	L3.884,29.156z M9.65,28.231l-0.107-3.438H9.65c1.388,0.292,2.589,1.156,3.299,2.404l0.062,0.062L9.65,28.231z M9.697,25.008
	l0.107,3.037l3.006-0.816C12.117,26.103,10.992,25.317,9.697,25.008z M7.6,28.231l-3.299-0.987l0.062-0.062
	c0.709-1.233,1.896-2.081,3.298-2.328H7.77C7.77,24.839,7.6,28.231,7.6,28.231z M4.517,27.167l2.944,0.878l0.124-3.037
	C6.305,25.24,5.241,26.057,4.517,27.167z"/>
<path fill="#FFFFFF" d="M8.648,25.193L7.6,28.169v0.062H7.539l-3.176,0.045l2.528,1.912l0.046,0.062v0.062l-0.878,2.974l2.59-1.756
	l0.062-0.062l0.062,0.062l2.59,1.756l-0.879-2.958v-0.17l0.062-0.062l2.528-1.912l-3.176-0.092H9.835V28.03L8.648,25.193
	L8.648,25.193z M7.477,28.045L8.602,24.9l0.062-0.169L8.725,24.9l1.126,3.099l3.299,0.062h0.247l-0.169,0.108l-2.698,1.973
	l0.941,3.143l0.061,0.172l-0.185-0.107l-2.698-1.867l-2.698,1.882l-0.17,0.107l0.062-0.248l0.94-3.16l-2.651-1.833l-0.17-0.108h0.17
	L7.477,28.045z"/>
<path fill="#FFFFFF" d="M2.836,34.582"/>
<path fill="#FFFFFF" d="M2.528,34.057l0.293,0.525L2.528,34.057z"/>
</svg>
