<?xml version="1.0" encoding="utf-8"?>
<!-- Generator: Adobe Illustrator 16.0.0, SVG Export Plug-In . SVG Version: 6.00 Build 0)  -->
<!DOCTYPE svg PUBLIC "-//W3C//DTD SVG 1.1//EN" "http://www.w3.org/Graphics/SVG/1.1/DTD/svg11.dtd">
<svg version="1.1" id="Livello_1" xmlns="http://www.w3.org/2000/svg" xmlns:xlink="http://www.w3.org/1999/xlink" x="0px" y="0px"
	 width="122px" height="112.667px" viewBox="0 0 122 112.667" enable-background="new 0 0 122 112.667" xml:space="preserve">
<linearGradient id="SVGID_1_" gradientUnits="userSpaceOnUse" x1="-959.3062" y1="-1173.3647" x2="-837.8126" y2="-1083.37" gradientTransform="matrix(1 0 0 1 963 1187.5225)">
	<stop  offset="0" style="stop-color:#6A99FF"/>
	<stop  offset="1" style="stop-color:#0B00FF"/>
</linearGradient>
<circle fill="url(#SVGID_1_)" cx="61.11" cy="56.688" r="51.014"/>
<polygon fill="#A3A3A3" points="26.622,55.2 26.622,55.199 26.621,55.201 "/>
<polygon fill="#A3A3A3" points="26.621,55.199 26.622,55.199 26.621,55.198 "/>
<polygon fill="#A3A3A3" points="-75.407,219.197 -75.407,219.197 -75.407,219.199 "/>
<polygon fill="#A3A3A3" points="-75.407,219.197 -75.407,219.197 -75.407,219.195 "/>
<path fill="#FFFFFF" d="M61,35.188c-13.161,0-23.781,10.711-23.781,23.781c0,13.16,10.71,23.779,23.781,23.779
	c13.069,0,23.78-10.709,23.78-23.779C84.78,45.898,74.16,35.188,61,35.188z M61,81.025c-12.162,0-21.966-9.895-21.966-21.967
	c0-12.162,9.894-21.964,21.966-21.964c12.071,0,21.964,9.893,21.964,21.964C82.964,71.13,73.162,81.025,61,81.025z"/>
<path fill="#FFFFFF" d="M61,41.541c-9.622,0-17.427,7.807-17.427,17.427c0,9.621,7.805,17.516,17.427,17.516
	c9.62,0,17.427-7.805,17.427-17.426C78.427,49.438,70.62,41.541,61,41.541z M61,74.669c-8.623,0-15.612-6.99-15.612-15.611
	c0-8.623,6.989-15.611,15.612-15.611s15.611,6.988,15.611,15.611C76.611,67.591,69.623,74.669,61,74.669z"/>
<path fill="#FFFFFF" d="M56.916,33.463h8.168c1.634,0,2.904-1.271,2.904-2.904c0-1.635-1.271-2.904-2.904-2.904h-8.168
	c-1.635,0-2.906,1.27-2.906,2.904C54.01,32.191,55.281,33.463,56.916,33.463z M56.916,29.471h8.168c0.544,0,1.09,0.451,1.09,1.088
	c0,0.545-0.454,1.09-1.09,1.09h-8.168c-0.545,0-1.09-0.455-1.09-1.09C55.826,30.014,56.278,29.471,56.916,29.471z"/>
<path fill="#FFFFFF" d="M61,45.354c-0.545,0-0.907,0.363-0.907,0.908v3.811c0,0.545,0.362,0.908,0.907,0.908
	c0.544,0,0.907-0.363,0.907-0.908v-3.811C61.907,45.807,61.544,45.354,61,45.354z"/>
<path fill="#FFFFFF" d="M61,67.046c-0.545,0-0.907,0.363-0.907,0.906v3.814c0,0.543,0.362,0.906,0.907,0.906
	c0.544,0,0.907-0.363,0.907-0.906v-3.814C61.907,67.5,61.544,67.046,61,67.046z"/>
<path fill="#FFFFFF" d="M52.015,58.15h-3.723c-0.545,0-0.906,0.363-0.906,0.908s0.361,0.908,0.906,0.908h3.812
	c0.545,0,0.908-0.363,0.908-0.908C52.921,58.513,52.559,58.15,52.015,58.15z"/>
<path fill="#FFFFFF" d="M73.706,58.15h-3.812c-0.544,0-0.907,0.363-0.907,0.908s0.363,0.908,0.907,0.908h3.812
	c0.546,0,0.908-0.363,0.908-0.908S74.252,58.15,73.706,58.15z"/>
</svg>
