<?xml version="1.0" encoding="utf-8"?>
<!-- Generator: Adobe Illustrator 16.0.0, SVG Export Plug-In . SVG Version: 6.00 Build 0)  -->
<!DOCTYPE svg PUBLIC "-//W3C//DTD SVG 1.1//EN" "http://www.w3.org/Graphics/SVG/1.1/DTD/svg11.dtd">
<svg version="1.1" id="Livello_1" xmlns="http://www.w3.org/2000/svg" xmlns:xlink="http://www.w3.org/1999/xlink" x="0px" y="0px"
	 width="121.98px" height="112.66px" viewBox="0 0 121.98 112.66" enable-background="new 0 0 121.98 112.66" xml:space="preserve">
<linearGradient id="SVGID_1_" gradientUnits="userSpaceOnUse" x1="-964.8748" y1="-1193.3301" x2="-851.5428" y2="-1082.6641" gradientTransform="matrix(1 0 0 1 963 1187.5156)">
	<stop  offset="0.0012" style="stop-color:#F83E5A;stop-opacity:0.7"/>
	<stop  offset="0.6103" style="stop-color:#F83E5A"/>
</linearGradient>
<path fill="url(#SVGID_1_)" d="M112.781,56.328c0,28.177-22.842,51.016-51.014,51.016c-28.171,0-51.017-22.839-51.017-51.016
	c0-28.172,22.846-51.012,51.017-51.012C89.939,5.316,112.781,28.156,112.781,56.328z"/>
<polygon fill="#A3A3A3" points="27.279,54.841 27.279,54.84 27.278,54.842 "/>
<polygon fill="#A3A3A3" points="27.278,54.84 27.279,54.84 27.278,54.838 "/>
<path fill="#FFFFFF" d="M90.088,57.273c0-2.541-2.061-4.602-4.603-4.602l0,0h-2.478c-0.821,0.004-1.605,0.338-2.175,0.93
	l-3.035,3.105l-3.356-5.057H70.87v-3.178c0-4.105-6.362-5.916-9.609-5.916c-3.248,0-9.609,1.811-9.609,5.916v3.188h-2.569
	l-3.358,5.057l-3.035-3.105c-0.564-0.592-1.345-0.932-2.164-0.939h-2.478c-2.542,0-4.603,2.061-4.603,4.602v12.32
	c0.005,1.387,0.512,2.723,1.426,3.762l-1.426,2.287v4.34h56.644v-4.34l-1.425-2.287c0.914-1.039,1.42-2.375,1.425-3.762V57.273z
	 M53.675,48.473c0-2.355,4.976-3.893,7.586-3.893c2.609,0,7.586,1.537,7.586,3.893v3.188H53.675V48.473z M83.008,64.273
	l-1.709,1.072l6.767,10.883v1.73H35.468v-1.73l6.796-10.883l-1.739-1.072l-4.53,7.252c-0.354-0.582-0.536-1.252-0.526-1.932v-12.32
	c0.005-1.422,1.156-2.574,2.579-2.578h2.478c0.272,0.002,0.531,0.115,0.719,0.312l5.594,5.756h5.249
	c-0.05,0.506-0.241,0.986-0.556,1.385c-0.466,0.459-1.108,0.693-1.761,0.639h-5.432l-4.693-4.756l-1.446,1.418l5.29,5.359h6.281
	c1.23,0.068,2.427-0.414,3.268-1.314c0.855-1.096,1.248-2.482,1.093-3.863l-0.102-0.891h-6.342l-0.526-0.547l3.034-4.51h23.164
	l3.034,4.51l-0.526,0.547h-6.362l-0.101,0.891c-0.156,1.381,0.236,2.768,1.092,3.863c0.841,0.9,2.037,1.383,3.268,1.314h6.281
	l5.29-5.359l-1.446-1.418l-4.693,4.756h-5.432c-0.647,0.059-1.288-0.172-1.75-0.629c-0.321-0.4-0.521-0.885-0.576-1.395h5.259
	l5.564-5.756c0.194-0.203,0.466-0.316,0.748-0.312h2.498c1.414,0.016,2.554,1.164,2.56,2.578v12.32c0,0.684-0.193,1.354-0.557,1.932
	L83.008,64.273z"/>
<path fill="#FFFFFF" d="M83.008,51.66c2.873-0.082,5.137-2.477,5.058-5.352v-1.436c0-2.793-2.265-5.057-5.058-5.057
	s-5.058,2.264-5.058,5.057v1.436C77.871,49.184,80.134,51.578,83.008,51.66z M79.972,44.873c0-1.676,1.358-3.035,3.035-3.035
	c1.676,0,3.034,1.359,3.034,3.035v1.436c0,1.676-1.358,3.035-3.034,3.035c-1.677,0-3.035-1.359-3.035-3.035V44.873z"/>
<path fill="#FFFFFF" d="M40.524,51.66c2.874-0.082,5.138-2.477,5.058-5.352v-1.436c0.08-2.873-2.184-5.27-5.058-5.352
	c-2.873,0.082-5.137,2.479-5.057,5.352v1.436C35.387,49.184,37.651,51.578,40.524,51.66z M37.49,44.873
	c-0.074-1.754,1.28-3.24,3.034-3.328c1.755,0.088,3.109,1.574,3.035,3.328v1.436c0.074,1.754-1.28,3.24-3.035,3.328
	c-1.754-0.088-3.108-1.574-3.034-3.328V44.873z"/>
<path fill="#FFFFFF" d="M61.766,41.545c2.873-0.082,5.137-2.477,5.057-5.352v-1.436c0-2.793-2.264-5.057-5.057-5.057
	c-2.794,0-5.058,2.264-5.058,5.057v1.436C56.629,39.068,58.892,41.463,61.766,41.545z M58.731,34.758
	c0-1.676,1.358-3.035,3.035-3.035c1.676,0,3.035,1.359,3.035,3.035v1.436c0,1.678-1.359,3.035-3.035,3.035
	c-1.677,0-3.035-1.357-3.035-3.035l0,0V34.758z"/>
</svg>
