<?xml version="1.0" encoding="utf-8"?>
<!-- Generator: Adobe Illustrator 16.0.0, SVG Export Plug-In . SVG Version: 6.00 Build 0)  -->
<!DOCTYPE svg PUBLIC "-//W3C//DTD SVG 1.1//EN" "http://www.w3.org/Graphics/SVG/1.1/DTD/svg11.dtd">
<svg version="1.1" id="Livello_1" xmlns="http://www.w3.org/2000/svg" xmlns:xlink="http://www.w3.org/1999/xlink" x="0px" y="0px"
	 width="122px" height="112.667px" viewBox="0 0 122 112.667" enable-background="new 0 0 122 112.667" xml:space="preserve">
<linearGradient id="SVGID_1_" gradientUnits="userSpaceOnUse" x1="-860.0552" y1="-1083.3037" x2="-963.4094" y2="-1200.7264" gradientTransform="matrix(1 0 0 1 963 1187.5225)">
	<stop  offset="0.0035" style="stop-color:#FF832A"/>
	<stop  offset="0.5945" style="stop-color:#FFB900"/>
</linearGradient>
<path fill="url(#SVGID_1_)" d="M112.124,56.687c0,28.176-22.842,51.016-51.014,51.016c-28.172,0-51.016-22.84-51.016-51.016
	c0-28.172,22.844-51.012,51.016-51.012C89.282,5.675,112.124,28.515,112.124,56.687z"/>
<polygon fill="#A3A3A3" points="26.622,55.2 26.622,55.199 26.621,55.201 "/>
<polygon fill="#A3A3A3" points="26.621,55.199 26.622,55.199 26.621,55.198 "/>
<g>
	<path fill="#FFFFFF" stroke="#FFFFFF" stroke-miterlimit="10" d="M85.325,73.287V39.275c-0.034-3.818-3.055-6.908-6.792-6.943
		H41.146c-3.085,0-5.586,2.557-5.586,5.713v19.47c0,3.227,2.558,5.84,5.713,5.84h4.189v9.932c0,3.225,2.559,5.842,5.714,5.842l0,0
		h8.061l-0.318,8.244c-0.007,0.238,0.114,0.463,0.318,0.582h0.316l0.318-0.129l5.521-3.57l5.523,3.57
		c0.303,0.18,0.69,0.072,0.866-0.238c0.061-0.104,0.09-0.225,0.086-0.346l-0.317-8.244h8.061C82.719,79,85.257,76.462,85.325,73.287
		z M45.398,62.058h-4.125c-2.453,0-4.443-2.033-4.443-4.543v-19.47c0-2.439,1.934-4.414,4.316-4.414
		c2.384,0,4.316,1.975,4.316,4.414L45.398,62.058z M65.394,75.947c-4.487,0-8.124-3.719-8.124-8.307s3.637-8.311,8.124-8.311
		c4.488,0,8.125,3.723,8.125,8.311S69.882,75.947,65.394,75.947L65.394,75.947z M65.711,83.087c-0.211-0.143-0.485-0.143-0.697,0
		l-4.823,3.115l0.379-10.318c2.937,1.779,6.588,1.779,9.522,0l0.381,10.318L65.711,83.087z M71.36,75.039
		c3.994-3.387,4.545-9.443,1.231-13.525c-3.312-4.082-9.234-4.646-13.229-1.26c-3.991,3.387-4.544,9.443-1.231,13.527
		c0.371,0.457,0.784,0.879,1.231,1.258l-0.126,2.855h-8.124c-2.455,0-4.444-2.033-4.444-4.543V38.045
		c0.002-1.709-0.742-3.328-2.031-4.414h33.896c3.036,0.035,5.488,2.541,5.523,5.644v34.012c0,2.51-1.99,4.543-4.444,4.543h-8.125
		L71.36,75.039z"/>
	<path fill="#FFFFFF" stroke="#FFFFFF" stroke-miterlimit="10" d="M65.711,49.597H54.285c-0.35,0-0.633,0.291-0.633,0.648
		s0.283,0.648,0.633,0.648h11.426c0.351,0,0.636-0.291,0.636-0.648S66.062,49.597,65.711,49.597z"/>
	<path fill="#FFFFFF" stroke="#FFFFFF" stroke-miterlimit="10" d="M75.613,41.419H54.285c-0.35,0-0.633,0.289-0.633,0.648
		c0,0.357,0.283,0.648,0.633,0.648h21.328c0.351,0,0.636-0.291,0.636-0.648C76.249,41.708,75.964,41.419,75.613,41.419z"/>
</g>
</svg>
